<?xml version="1.0" encoding="UTF-8" standalone="no"?>
<!DOCTYPE svg PUBLIC "-//W3C//DTD SVG 1.1//EN"
 "http://www.w3.org/Graphics/SVG/1.1/DTD/svg11.dtd">
<!-- Generated by graphviz version 2.47.0 (20210316.0004)
 -->
<!-- Title: dependencies Pages: 1 -->
<svg width="705pt" height="284pt"
 viewBox="0.00 0.00 705.00 284.00" xmlns="http://www.w3.org/2000/svg" xmlns:xlink="http://www.w3.org/1999/xlink">
<g id="graph0" class="graph" transform="scale(1 1) rotate(0) translate(4 280)">
<title>dependencies</title>
<polygon fill="white" stroke="transparent" points="-4,4 -4,-280 701,-280 701,4 -4,4"/>
<text text-anchor="start" x="327.51" y="-42.4" font-family="sans-serif" font-weight="bold" font-size="14.00">Legend</text>
<polygon fill="#ffffb3" stroke="transparent" points="114.5,-10 114.5,-30 134.5,-30 134.5,-10 114.5,-10"/>
<text text-anchor="start" x="138.13" y="-15.4" font-family="sans-serif" font-size="14.00"> &#160;Declarations</text>
<polygon fill="#8dd3c7" stroke="transparent" points="227.5,-10 227.5,-30 247.5,-30 247.5,-10 227.5,-10"/>
<text text-anchor="start" x="251.23" y="-15.4" font-family="sans-serif" font-size="14.00"> &#160;Module</text>
<polygon fill="#80b1d3" stroke="transparent" points="313.5,-10 313.5,-30 333.5,-30 333.5,-10 313.5,-10"/>
<text text-anchor="start" x="337.28" y="-15.4" font-family="sans-serif" font-size="14.00"> &#160;Bootstrap</text>
<polygon fill="#fdb462" stroke="transparent" points="410.5,-10 410.5,-30 430.5,-30 430.5,-10 410.5,-10"/>
<text text-anchor="start" x="434.17" y="-15.4" font-family="sans-serif" font-size="14.00"> &#160;Providers</text>
<polygon fill="#fb8072" stroke="transparent" points="506.5,-10 506.5,-30 526.5,-30 526.5,-10 506.5,-10"/>
<text text-anchor="start" x="530.23" y="-15.4" font-family="sans-serif" font-size="14.00"> &#160;Exports</text>
<g id="clust1" class="cluster">
<title>cluster_AppModule</title>
<polygon fill="none" stroke="black" stroke-dasharray="1,5" points="8,-70 8,-268 689,-268 689,-70 8,-70"/>
</g>
<g id="clust7" class="cluster">
<title>cluster_AppModule_imports</title>
<polygon fill="none" stroke="black" points="537,-78 537,-130 681,-130 681,-78 537,-78"/>
</g>
<g id="clust9" class="cluster">
<title>cluster_AppModule_bootstrap</title>
<polygon fill="none" stroke="black" points="279,-208 279,-260 403,-260 403,-208 279,-208"/>
</g>
<g id="clust2" class="cluster">
<title>cluster_AppModule_declarations</title>
<polygon fill="none" stroke="black" points="16,-78 16,-130 529,-130 529,-78 16,-78"/>
</g>
<!-- AppComponent -->
<g id="node1" class="node">
<title>AppComponent</title>
<polygon fill="#ffffb3" stroke="black" points="520.94,-122 415.06,-122 415.06,-86 520.94,-86 520.94,-122"/>
<text text-anchor="middle" x="468" y="-99.8" font-family="Times,serif" font-size="14.00">AppComponent</text>
</g>
<!-- AppModule -->
<g id="node5" class="node">
<title>AppModule</title>
<polygon fill="#8dd3c7" stroke="black" points="382.66,-187 379.66,-191 358.66,-191 355.66,-187 299.34,-187 299.34,-151 382.66,-151 382.66,-187"/>
<text text-anchor="middle" x="341" y="-164.8" font-family="Times,serif" font-size="14.00">AppModule</text>
</g>
<!-- AppComponent&#45;&gt;AppModule -->
<g id="edge1" class="edge">
<title>AppComponent&#45;&gt;AppModule</title>
<path fill="none" stroke="black" d="M468,-122.02C468,-139.37 468,-163 468,-163 468,-163 392.94,-163 392.94,-163"/>
<polygon fill="black" stroke="black" points="392.94,-159.5 382.94,-163 392.94,-166.5 392.94,-159.5"/>
</g>
<!-- ChartComponent -->
<g id="node2" class="node">
<title>ChartComponent</title>
<polygon fill="#ffffb3" stroke="black" points="397.44,-122 284.56,-122 284.56,-86 397.44,-86 397.44,-122"/>
<text text-anchor="middle" x="341" y="-99.8" font-family="Times,serif" font-size="14.00">ChartComponent</text>
</g>
<!-- ChartComponent&#45;&gt;AppModule -->
<g id="edge2" class="edge">
<title>ChartComponent&#45;&gt;AppModule</title>
<path fill="none" stroke="black" d="M341,-122.11C341,-122.11 341,-140.99 341,-140.99"/>
<polygon fill="black" stroke="black" points="337.5,-140.99 341,-150.99 344.5,-140.99 337.5,-140.99"/>
</g>
<!-- FormComponent -->
<g id="node3" class="node">
<title>FormComponent</title>
<polygon fill="#ffffb3" stroke="black" points="266.67,-122 155.33,-122 155.33,-86 266.67,-86 266.67,-122"/>
<text text-anchor="middle" x="211" y="-99.8" font-family="Times,serif" font-size="14.00">FormComponent</text>
</g>
<!-- FormComponent&#45;&gt;AppModule -->
<g id="edge3" class="edge">
<title>FormComponent&#45;&gt;AppModule</title>
<path fill="none" stroke="black" d="M211,-122.02C211,-139.37 211,-163 211,-163 211,-163 289.15,-163 289.15,-163"/>
<polygon fill="black" stroke="black" points="289.15,-166.5 299.15,-163 289.15,-159.5 289.15,-166.5"/>
</g>
<!-- TableComponent -->
<g id="node4" class="node">
<title>TableComponent</title>
<polygon fill="#ffffb3" stroke="black" points="137.7,-122 24.3,-122 24.3,-86 137.7,-86 137.7,-122"/>
<text text-anchor="middle" x="81" y="-99.8" font-family="Times,serif" font-size="14.00">TableComponent</text>
</g>
<!-- TableComponent&#45;&gt;AppModule -->
<g id="edge4" class="edge">
<title>TableComponent&#45;&gt;AppModule</title>
<path fill="none" stroke="black" d="M81,-122.28C81,-143.32 81,-175 81,-175 81,-175 289.23,-175 289.23,-175"/>
<polygon fill="black" stroke="black" points="289.23,-178.5 299.23,-175 289.23,-171.5 289.23,-178.5"/>
</g>
<!-- AppComponent  -->
<g id="node7" class="node">
<title>AppComponent </title>
<polygon fill="#80b1d3" stroke="black" points="395.44,-252 286.56,-252 286.56,-216 395.44,-216 395.44,-252"/>
<text text-anchor="middle" x="341" y="-229.8" font-family="Times,serif" font-size="14.00">AppComponent </text>
</g>
<!-- AppModule&#45;&gt;AppComponent  -->
<g id="edge6" class="edge">
<title>AppModule&#45;&gt;AppComponent </title>
<path fill="none" stroke="black" stroke-dasharray="1,5" d="M341,-187.11C341,-187.11 341,-205.99 341,-205.99"/>
<polygon fill="black" stroke="black" points="337.5,-205.99 341,-215.99 344.5,-205.99 337.5,-205.99"/>
</g>
<!-- AppRoutingModule -->
<g id="node6" class="node">
<title>AppRoutingModule</title>
<polygon fill="#8dd3c7" stroke="black" points="673.27,-122 670.27,-126 649.27,-126 646.27,-122 544.73,-122 544.73,-86 673.27,-86 673.27,-122"/>
<text text-anchor="middle" x="609" y="-99.8" font-family="Times,serif" font-size="14.00">AppRoutingModule</text>
</g>
<!-- AppRoutingModule&#45;&gt;AppModule -->
<g id="edge5" class="edge">
<title>AppRoutingModule&#45;&gt;AppModule</title>
<path fill="none" stroke="black" d="M609,-122.28C609,-143.32 609,-175 609,-175 609,-175 392.88,-175 392.88,-175"/>
<polygon fill="black" stroke="black" points="392.88,-171.5 382.88,-175 392.87,-178.5 392.88,-171.5"/>
</g>
</g>
</svg>
