<?xml version="1.0" encoding="UTF-8" standalone="no"?>
<!DOCTYPE svg PUBLIC "-//W3C//DTD SVG 1.1//EN"
 "http://www.w3.org/Graphics/SVG/1.1/DTD/svg11.dtd">
<!-- Generated by graphviz version 2.47.0 (20210316.0004)
 -->
<!-- Title: dependencies Pages: 1 -->
<svg width="705pt" height="284pt"
 viewBox="0.00 0.00 705.00 284.00" xmlns="http://www.w3.org/2000/svg" xmlns:xlink="http://www.w3.org/1999/xlink">
<g id="graph0" class="graph" transform="scale(1 1) rotate(0) translate(4 280)">
<title>dependencies</title>
<polygon fill="white" stroke="transparent" points="-4,4 -4,-280 701,-280 701,4 -4,4"/>
<text text-anchor="start" x="327.51" y="-42.4" font-family="sans-serif" font-weight="bold" font-size="14.00">Legend</text>
<polygon fill="#ffffb3" stroke="transparent" points="114.5,-10 114.5,-30 134.5,-30 134.5,-10 114.5,-10"/>
<text text-anchor="start" x="138.13" y="-15.4" font-family="sans-serif" font-size="14.00"> &#160;Declarations</text>
<polygon fill="#8dd3c7" stroke="transparent" points="227.5,-10 227.5,-30 247.5,-30 247.5,-10 227.5,-10"/>
<text text-anchor="start" x="251.23" y="-15.4" font-family="sans-serif" font-size="14.00"> &#160;Module</text>
<polygon fill="#80b1d3" stroke="transparent" points="313.5,-10 313.5,-30 333.5,-30 333.5,-10 313.5,-10"/>
<text text-anchor="start" x="337.28" y="-15.4" font-family="sans-serif" font-size="14.00"> &#160;Bootstrap</text>
<polygon fill="#fdb462" stroke="transparent" points="410.5,-10 410.5,-30 430.5,-30 430.5,-10 410.5,-10"/>
<text text-anchor="start" x="434.17" y="-15.4" font-family="sans-serif" font-size="14.00"> &#160;Providers</text>
<polygon fill="#fb8072" stroke="transparent" points="506.5,-10 506.5,-30 526.5,-30 526.5,-10 506.5,-10"/>
<text text-anchor="start" x="530.23" y="-15.4" font-family="sans-serif" font-size="14.00"> &#160;Exports</text>
<g id="clust1" class="cluster">
<title>cluster_AppModule</title>
<polygon fill="none" stroke="black" stroke-dasharray="1,5" points="8,-70 8,-268 689,-268 689,-70 8,-70"/>
</g>
<g id="clust2" class="cluster">
<title>cluster_AppModule_declarations</title>
<polygon fill="none" stroke="black" points="168,-78 168,-130 681,-130 681,-78 168,-78"/>
</g>
<g id="clust7" class="cluster">
<title>cluster_AppModule_imports</title>
<polygon fill="none" stroke="black" points="16,-78 16,-130 160,-130 160,-78 16,-78"/>
</g>
<g id="clust9" class="cluster">
<title>cluster_AppModule_bootstrap</title>
<polygon fill="none" stroke="black" points="301,-208 301,-260 425,-260 425,-208 301,-208"/>
</g>
<!-- AppComponent -->
<g id="node1" class="node">
<title>AppComponent</title>
<polygon fill="#ffffb3" stroke="black" points="672.94,-122 567.06,-122 567.06,-86 672.94,-86 672.94,-122"/>
<text text-anchor="middle" x="620" y="-99.8" font-family="Times,serif" font-size="14.00">AppComponent</text>
</g>
<!-- AppModule -->
<g id="node5" class="node">
<title>AppModule</title>
<polygon fill="#8dd3c7" stroke="black" points="404.66,-187 401.66,-191 380.66,-191 377.66,-187 321.34,-187 321.34,-151 404.66,-151 404.66,-187"/>
<text text-anchor="middle" x="363" y="-164.8" font-family="Times,serif" font-size="14.00">AppModule</text>
</g>
<!-- AppComponent&#45;&gt;AppModule -->
<g id="edge1" class="edge">
<title>AppComponent&#45;&gt;AppModule</title>
<path fill="none" stroke="black" d="M620,-122.28C620,-143.32 620,-175 620,-175 620,-175 414.86,-175 414.86,-175"/>
<polygon fill="black" stroke="black" points="414.86,-171.5 404.86,-175 414.86,-178.5 414.86,-171.5"/>
</g>
<!-- ChartComponent -->
<g id="node2" class="node">
<title>ChartComponent</title>
<polygon fill="#ffffb3" stroke="black" points="549.44,-122 436.56,-122 436.56,-86 549.44,-86 549.44,-122"/>
<text text-anchor="middle" x="493" y="-99.8" font-family="Times,serif" font-size="14.00">ChartComponent</text>
</g>
<!-- ChartComponent&#45;&gt;AppModule -->
<g id="edge2" class="edge">
<title>ChartComponent&#45;&gt;AppModule</title>
<path fill="none" stroke="black" d="M493,-122.02C493,-139.37 493,-163 493,-163 493,-163 414.85,-163 414.85,-163"/>
<polygon fill="black" stroke="black" points="414.85,-159.5 404.85,-163 414.85,-166.5 414.85,-159.5"/>
</g>
<!-- FormComponent -->
<g id="node3" class="node">
<title>FormComponent</title>
<polygon fill="#ffffb3" stroke="black" points="418.67,-122 307.33,-122 307.33,-86 418.67,-86 418.67,-122"/>
<text text-anchor="middle" x="363" y="-99.8" font-family="Times,serif" font-size="14.00">FormComponent</text>
</g>
<!-- FormComponent&#45;&gt;AppModule -->
<g id="edge3" class="edge">
<title>FormComponent&#45;&gt;AppModule</title>
<path fill="none" stroke="black" d="M363,-122.11C363,-122.11 363,-140.99 363,-140.99"/>
<polygon fill="black" stroke="black" points="359.5,-140.99 363,-150.99 366.5,-140.99 359.5,-140.99"/>
</g>
<!-- TableComponent -->
<g id="node4" class="node">
<title>TableComponent</title>
<polygon fill="#ffffb3" stroke="black" points="289.7,-122 176.3,-122 176.3,-86 289.7,-86 289.7,-122"/>
<text text-anchor="middle" x="233" y="-99.8" font-family="Times,serif" font-size="14.00">TableComponent</text>
</g>
<!-- TableComponent&#45;&gt;AppModule -->
<g id="edge4" class="edge">
<title>TableComponent&#45;&gt;AppModule</title>
<path fill="none" stroke="black" d="M233,-122.02C233,-139.37 233,-163 233,-163 233,-163 311.15,-163 311.15,-163"/>
<polygon fill="black" stroke="black" points="311.15,-166.5 321.15,-163 311.15,-159.5 311.15,-166.5"/>
</g>
<!-- AppComponent  -->
<g id="node7" class="node">
<title>AppComponent </title>
<polygon fill="#80b1d3" stroke="black" points="417.44,-252 308.56,-252 308.56,-216 417.44,-216 417.44,-252"/>
<text text-anchor="middle" x="363" y="-229.8" font-family="Times,serif" font-size="14.00">AppComponent </text>
</g>
<!-- AppModule&#45;&gt;AppComponent  -->
<g id="edge6" class="edge">
<title>AppModule&#45;&gt;AppComponent </title>
<path fill="none" stroke="black" stroke-dasharray="1,5" d="M363,-187.11C363,-187.11 363,-205.99 363,-205.99"/>
<polygon fill="black" stroke="black" points="359.5,-205.99 363,-215.99 366.5,-205.99 359.5,-205.99"/>
</g>
<!-- AppRoutingModule -->
<g id="node6" class="node">
<title>AppRoutingModule</title>
<polygon fill="#8dd3c7" stroke="black" points="152.27,-122 149.27,-126 128.27,-126 125.27,-122 23.73,-122 23.73,-86 152.27,-86 152.27,-122"/>
<text text-anchor="middle" x="88" y="-99.8" font-family="Times,serif" font-size="14.00">AppRoutingModule</text>
</g>
<!-- AppRoutingModule&#45;&gt;AppModule -->
<g id="edge5" class="edge">
<title>AppRoutingModule&#45;&gt;AppModule</title>
<path fill="none" stroke="black" d="M88,-122.28C88,-143.32 88,-175 88,-175 88,-175 311.23,-175 311.23,-175"/>
<polygon fill="black" stroke="black" points="311.23,-178.5 321.23,-175 311.23,-171.5 311.23,-178.5"/>
</g>
</g>
</svg>
